<?xml version="1.0" encoding="utf-8"?>
<!-- Generator: Adobe Illustrator 16.0.3, SVG Export Plug-In . SVG Version: 6.00 Build 0)  -->
<!DOCTYPE svg PUBLIC "-//W3C//DTD SVG 1.1//EN" "http://www.w3.org/Graphics/SVG/1.1/DTD/svg11.dtd">
<svg version="1.1" id="Capa_1" xmlns="http://www.w3.org/2000/svg" xmlns:xlink="http://www.w3.org/1999/xlink" x="0px" y="0px"
	 width="48.227px" height="48.333px" viewBox="0 0 48.227 48.333" enable-background="new 0 0 48.227 48.333" xml:space="preserve">
<g>
	<g>
		<path fill="#FFFFFF" d="M34.641,34.623c-0.359,0.395-0.861,0.629-1.394,0.651c-0.533,0.022-1.053-0.169-1.444-0.532l-9.99-9.071
			c-0.382-0.395-0.584-0.93-0.56-1.479V13.203c0-1.104,0.895-1.998,1.998-1.998s1.998,0.895,1.998,1.998v10.11l9.251,8.492
			C35.315,32.546,35.378,33.806,34.641,34.623z M24.25,0.215c-13.242,0-23.978,10.735-23.978,23.978S11.008,48.17,24.25,48.17
			s23.978-10.735,23.978-23.978S37.492,0.215,24.25,0.215z"/>
	</g>
</g>
</svg>
