<svg id="Gruppe_505" data-name="Gruppe 505" xmlns="http://www.w3.org/2000/svg" width="78" height="78" viewBox="0 0 78 78">
  <circle id="Ellipse_71" data-name="Ellipse 71" cx="39" cy="39" r="39" fill="#11a3a7"/>
  <g id="Gruppe_504" data-name="Gruppe 504" transform="translate(28.776 20.366)">
    <path id="Pfad_289" data-name="Pfad 289" d="M30.586,11.233a.783.783,0,0,0-.58-.266H24.1V8.758c0-.439.094-.94.8-.94h4.7a.658.658,0,0,0,.548-.235.736.736,0,0,0,.219-.533V.783A.783.783,0,0,0,29.583,0H22.8c-7.52,0-8.1,6.423-8.1,8.382v2.585H10.783A.783.783,0,0,0,10,11.75v6.267a.783.783,0,0,0,.783.783H14.7V36.817a.783.783,0,0,0,.783.783h7.833a.783.783,0,0,0,.783-.783V18.8h5.248a.783.783,0,0,0,.783-.7l.642-6.267a.736.736,0,0,0-.188-.6Z" transform="translate(-10)" fill="#fff"/>
  </g>
</svg>
