<svg xmlns="http://www.w3.org/2000/svg" width="78" height="78" viewBox="0 0 78 78">
  <g id="Gruppe_506" data-name="Gruppe 506" transform="translate(-0.083)">
    <circle id="Ellipse_71" data-name="Ellipse 71" cx="39" cy="39" r="39" transform="translate(0.083)" fill="#11a3a7"/>
    <g id="Gruppe_508" data-name="Gruppe 508" transform="translate(21.15 20.564)">
      <g id="Gruppe_507" data-name="Gruppe 507" transform="translate(0 0)">
        <path id="Pfad_290" data-name="Pfad 290" d="M10.5,8.074v6.674a1.175,1.175,0,0,0,2.35,0V8.074l4.465-5.938A1.18,1.18,0,1,0,15.434.711l-3.76,5.013L7.914.711a1.18,1.18,0,0,0-1.88,1.426Z" transform="translate(-2.039 -0.244)" fill="#fff"/>
        <path id="Pfad_291" data-name="Pfad 291" d="M18.9,8.785v4.7a3.525,3.525,0,0,0,7.05,0v-4.7a3.525,3.525,0,0,0-7.05,0Zm2.35,0a1.175,1.175,0,0,1,2.35,0v4.7a1.175,1.175,0,1,1-2.35,0Z" transform="translate(-4.878 -1.331)" fill="#fff"/>
        <path id="Pfad_292" data-name="Pfad 292" d="M31.269,15.737a4.261,4.261,0,0,0,3.039,1.253h0a4.246,4.246,0,0,0,2.131-.58,1.159,1.159,0,0,0,1,.58,1.175,1.175,0,0,0,1.175-1.175V12.682h0V6.415a1.175,1.175,0,1,0-2.35,0v6.267a1.958,1.958,0,0,1-1.958,1.943h0a1.958,1.958,0,0,1-1.958-1.943V6.415a1.175,1.175,0,0,0-2.35,0v6.267A4.293,4.293,0,0,0,31.269,15.737Z" transform="translate(-7.283 -1.326)" fill="#fff"/>
        <path id="Pfad_293" data-name="Pfad 293" d="M36.567,34.523a.783.783,0,1,0-1.567,0v.783h1.567Z" transform="translate(-8.367 -7.501)" fill="#fff"/>
        <path id="Pfad_294" data-name="Pfad 294" d="M27.783,33.74a.783.783,0,0,0-.783.783v3.133a.783.783,0,0,0,1.567,0V34.523A.783.783,0,0,0,27.783,33.74Z" transform="translate(-6.633 -7.501)" fill="#fff"/>
        <path id="Pfad_295" data-name="Pfad 295" d="M29.983,23.74H8.05A7.066,7.066,0,0,0,1,30.79v4.7a7.05,7.05,0,0,0,7.05,7.05H29.983a7.05,7.05,0,0,0,7.05-7.05v-4.7A7.066,7.066,0,0,0,29.983,23.74ZM12.75,30.007H10.4v7.019a.783.783,0,0,1-1.567,0V30.007H6.483a.783.783,0,1,1,0-1.567H12.75a.783.783,0,1,1,0,1.567ZM18.2,35.49v1.567a.783.783,0,0,1-.783.783.752.752,0,0,1-.564-.235,2.146,2.146,0,0,1-1,.235,2.35,2.35,0,0,1-2.35-2.35v-4.7a.783.783,0,1,1,1.567,0v4.7a.783.783,0,0,0,1.567,0v-4.7a.783.783,0,0,1,1.567,0Zm6.267,0a2.35,2.35,0,0,1-2.35,2.35,2.507,2.507,0,0,1-1.034-.235.8.8,0,0,1-.533.2.783.783,0,0,1-.783-.783v-9.4a.783.783,0,1,1,1.567,0V30.21a2.178,2.178,0,0,1,.783-.157,2.35,2.35,0,0,1,2.35,2.35Zm4.058,2.35A2.632,2.632,0,0,1,26.035,35.3V32.357a2.35,2.35,0,1,1,4.7,0v1.567a.783.783,0,0,1-.783.783H27.633v.6a1.081,1.081,0,0,0,.924.971c.345,0,.909-.157.909-.58a.783.783,0,1,1,1.567,0,2.272,2.272,0,0,1-2.475,2.146Z" transform="translate(-1 -5.335)" fill="#fff"/>
      </g>
    </g>
  </g>
</svg>
